<svg xmlns="http://www.w3.org/2000/svg" width="192" height="192"><path d="M139.21 16a16.63 16.63 0 0 0-8.317 2.23L44.467 68.132a16.633 16.633 0 0 0-6.087 22.72A16.633 16.633 0 0 0 61.1 96.94l86.427-49.896a16.633 16.633 0 0 0 6.087-22.721 16.63 16.63 0 0 0-14.404-8.324zm-21.032 63.37a16.63 16.63 0 0 0-8.317 2.223l-43.22 24.95a16.633 16.633 0 0 0-6.087 22.722 16.633 16.633 0 0 0 22.72 6.094l43.22-24.95a16.633 16.633 0 0 0 6.081-22.722 16.63 16.63 0 0 0-14.398-8.317zm-21.039 63.356a16.63 16.63 0 0 0-8.317 2.23 16.633 16.633 0 0 0-6.087 22.728 16.633 16.633 0 0 0 22.72 6.087 16.633 16.633 0 0 0 6.088-22.721 16.63 16.63 0 0 0-14.404-8.324"/></svg>