<svg xmlns="http://www.w3.org/2000/svg" width="192" height="192"><path d="M67.337 16.004a7.11 7.11 0 0 0-7.275 6.185l-.441 3.314 48.36-1.04-75.873 18.55a8.777 8.777 0 0 0-6.457 10.634l28.274 115.64a8.775 8.775 0 0 0 10.634 6.454l59.056-14.437 18.77 2.5c3.564.474 6.824-1.763 7.775-5.12a7.6 7.6 0 0 1-4.701 1.76l-20.087.43 26.44-6.463a8.777 8.777 0 0 0 6.457-10.635l-3.905-15.97 12.175-91.445a7.11 7.11 0 0 0-6.123-8.007l-11.603-1.544a7.6 7.6 0 0 1 1.515 4.386l.181 8.384a6.99 6.99 0 0 1 5.115 7.721l-4.278 31.314.869 40.4-22.22-90.881a8.8 8.8 0 0 0-2.281-4.099l.223-.005-.262-.034a8.78 8.78 0 0 0-8.314-2.319l-3.21.785-48.084-6.4a7 7 0 0 0-.73-.06zm75.158 7.773-14.671.315a8.8 8.8 0 0 1 2.228 4.03l1.942 7.946 1.316-.028a6.997 6.997 0 0 1 7.163 6.93l.384 29.346 11.289 46.172-1.875-87.286a7.57 7.57 0 0 0-7.749-7.423h-.027zm-35.035.753L50.3 25.758a7.573 7.573 0 0 0-7.425 7.751l.147 6.776zm8.071 9.185h.057l-.007.009a6.99 6.99 0 0 1 6.748 5.31l19.75 78.748a7.117 7.117 0 0 1-5.127 8.628l-70.76 18.274a6.997 6.997 0 0 1-8.567-5.09L37.876 60.846a7.115 7.115 0 0 1 5.126-8.626l70.76-18.277a7 7 0 0 1 1.769-.229zM89.402 53.578c-9.52-.325-18.768 4.656-24.036 10.016 3.367 6.2 10.427 18.536 11.483 18.247h.003c1.408-.714 15.813-24.674 16.637-27.785a24.7 24.7 0 0 0-4.087-.478m10.045 1.191C95.413 61.03 88.202 72.836 88.96 73.604c1.301.89 28.631 2 32.07 1.272.064-.012.238-.015.289-.028-3.528-11.4-14.405-17.966-21.871-20.079zM62.091 67.567c-8.048 8.87-8.139 21.624-6.137 29.135 0 0 21.239.786 21.605-.613.125-1.657-13.252-26.318-15.467-28.522zm48.467 12.176c-4.556.048-8.353.261-8.498.817-.108 1.685 13.37 26.284 15.5 28.436 7.99-8.868 8.061-21.577 6.053-29.072-3.182-.11-8.498-.229-13.054-.181zm-8.211 14.938c-.871.05-15.481 24.347-16.396 27.95 11.72 2.27 22.642-4.227 28.027-9.813-3.523-6.34-10.482-18.203-11.631-18.137m-44.652 7.474c3.982 11.296 15.16 17.434 22.723 19.241.032-.055 10.779-18.316 9.723-19.3-1.397-.898-29.455-.841-32.446.06zm-12.678 30.946.473 21.846a7.56 7.56 0 0 0 6.669 7.355zm-.007 2.172-1.097 8.235c-.258 1.935.301 3.774 1.384 5.214zm89.236.78.047.002c.856.026 1.473.564 1.787 1.57.093.296.107.698.01 1.057-.099.359-.311.677-.67.79a.43.43 0 0 1-.36-.04.53.53 0 0 1-.22-.298c-.14-.453-.036-.93-.172-1.364-.082-.265-.22-.438-.386-.527-.167-.09-.368-.097-.584-.03-.448.14-.763.648-.934 1.226-.171.579-.196 1.225-.073 1.62.127.405.446.64.88.82.43.177.97.298 1.528.47 1.207-1.41 2.526-2.583 3.19-2.982a.27.27 0 0 1 .29.025.4.4 0 0 1 .157.273v.01l-.005.008c-.456.779-1.537 1.892-2.574 3.075.739.363 1.383.946 1.712 2 .248.793.023 1.752-.48 2.583-.502.831-1.282 1.534-2.16 1.808-1.132.354-2.277-.214-2.637-1.367-.323-1.032.317-2.494 1.305-3.9-.677-.138-1.364-.326-1.912-.762a6 6 0 0 1-1.05 2.276c-.523.703-1.19 1.273-1.915 1.5-.498.155-1 .054-1.437-.184a2.9 2.9 0 0 1-1.02-.984c-.221.63-.5 1.266-.808 1.77-.315.514-.656.897-.998 1.004a.98.98 0 0 1-.705-.04 1.7 1.7 0 0 1-.577-.462c-.323-.382-.553-.89-.71-1.31-.277 1.134-.709 2.445-1.195 3.518-.248.547-.507 1.03-.767 1.398-.259.368-.517.62-.767.699-.422.131-.715.037-.916-.185-.2-.222-.311-.563-.391-.921-.195-.898-.156-1.866-.107-2.792.017-.219.066-.604.1-.977.034-.363.048-.707.013-.869-.661-.002-1.309.052-1.873-.045.02.407-.245.969-.658 1.5-.418.536-.976 1.028-1.514 1.27.002.994-.191 1.958-.57 2.734-.38.78-.945 1.369-1.678 1.597-.617.193-1.257.026-1.81-.416-.538-.431-.985-1.138-1.271-2.016-.236.752-.517 1.522-.8 2.124a5.5 5.5 0 0 1-.43.774c-.14.199-.273.333-.403.374a.8.8 0 0 1-.611-.041 1.3 1.3 0 0 1-.455-.414c-.255-.353-.42-.816-.52-1.136-.454-1.452-.482-2.967-.933-4.41a2.2 2.2 0 0 0-.328-.67c-.081.051-.163.157-.235.336a5 5 0 0 0-.21.747c-.127.596-.232 1.36-.342 2.121-.109.761-.223 1.52-.37 2.11a3.7 3.7 0 0 1-.252.734c-.095.19-.203.32-.337.362a.55.55 0 0 1-.448-.04.9.9 0 0 1-.314-.324c-.172-.273-.275-.624-.344-.846-.38-1.217-.639-2.449-1.018-3.662a6 6 0 0 0-.213-.612c-.086-.204-.195-.384-.31-.49-.057.036-.118.111-.17.249-.055.15-.104.355-.144.595-.08.478-.13 1.1-.16 1.741-.063 1.281-.05 2.632-.048 3.045-.003.501-.072 1.05-.276 1.518s-.549.856-1.097 1.027a.6.6 0 0 1-.45-.024.9.9 0 0 1-.33-.295c-.183-.254-.296-.592-.371-.834a10 10 0 0 1-.118-.428c-.052.123-.128.24-.188.36l-.046.09c-.555 1.069-1.412 2.043-2.413 2.355-.59.184-1.182-.009-1.67-.348-.09 1.316-.279 2.76-.674 3.95-.398 1.199-1.005 2.144-1.934 2.434-1.058.33-2.534-.22-3.14-2.16-1.04-3.33-.089-7.335-1.08-10.507-.044-.145-.089-.3-.162-.398a.26.26 0 0 0-.131-.102.34.34 0 0 0-.21.01c-.251.078-.555.399-.865.889s-.628 1.147-.918 1.895c-.582 1.498-1.058 3.36-1.165 4.977-.03.379-.032.693-.072.975a1.7 1.7 0 0 1-.3.786c-.18.25-.424.435-.644.504a.48.48 0 0 1-.538-.156.9.9 0 0 1-.154-.272c-.43-1.375-.538-3.217-.627-4.995-.09-1.777-.16-3.492-.507-4.604a1 1 0 0 0-.085-.2.3.3 0 0 0-.082-.096.1.1 0 0 0-.09-.016.33.33 0 0 0-.136.114 1.6 1.6 0 0 0-.159.262 7 7 0 0 0-.352.903c-.244.744-.5 1.742-.736 2.814-.47 2.145-.857 4.584-.898 5.873-.018.649.071 1.346.097 2.007.026.66-.011 1.286-.294 1.794-.208.365-.489.585-.918.719-.176.055-.34.084-.482.029-.143-.056-.257-.195-.34-.46-.266-.853-.35-1.8-.637-3.807-.339-2.373-.66-5.364-.736-6.762-.076-1.195-.05-2.157.073-2.848q.092-.52.255-.827c.109-.205.244-.338.403-.388.225-.07.48.023.702.215.222.193.415.488.522.83.1.32.18.88.25 1.573.068.693.122 1.517.169 2.357.086 1.558.137 3.06.185 3.981.147-1.165.342-3.456.783-5.716.232-1.19.526-2.335.91-3.23.382-.896.854-1.546 1.447-1.731.434-.136.867-.02 1.24.296.373.317.689.833.898 1.503.443 1.417.506 3.87.586 5.245.166-1.118.538-2.465 1.11-3.628.595-1.208 1.378-2.205 2.299-2.493.695-.217 1.215.035 1.592.461.378.427.618 1.027.772 1.52.598 1.916.605 3.668.588 5.344-.016 1.676-.058 3.275.443 4.88.341 1.091.932 1.182 1.204 1.097.21-.065.402-.31.572-.683.17-.375.319-.876.446-1.448.255-1.143.432-2.566.561-3.828a2 2 0 0 1-.093-.235 6.15 6.15 0 0 1-.093-3.124c.258-1.052.85-1.97 1.903-2.299.391-.122.727-.108.996.035.268.143.467.412.586.793.204.656.117 1.507-.186 2.26-.299.742-.818 1.376-1.477 1.638l.027.086c.077.246.235.537.446.74.21.204.47.32.757.23.426-.132.836-.69 1.181-1.366.345-.674.626-1.463.814-2.063-.167-.988-.291-2.083-.246-2.975.022-.447.086-.843.21-1.15s.312-.523.575-.606a.6.6 0 0 1 .337-.022c.092.026.164.08.221.152.115.142.171.35.232.543.38 1.22.248 2.519.459 3.75.06-.751.111-2.01.337-3.26.12-.673.288-1.317.527-1.828.239-.51.55-.887.961-1.015a.96.96 0 0 1 .736.05c.213.106.394.288.547.502.305.43.502.996.622 1.382.242.773.358 1.56.564 2.32.1-.673.242-1.686.547-2.632.32-.992.803-1.884 1.572-2.124.436-.136.827.032 1.131.319.305.286.528.693.638 1.045.339 1.084.445 2.239.538 3.353.048.56.022 1.223.182 1.737h.002a.2.2 0 0 0 .034.06.15.15 0 0 0 .059.042.4.4 0 0 0 .129-.131q.078-.113.165-.292c.117-.237.245-.552.373-.896.256-.686.518-1.49.728-2.063a4.1 4.1 0 0 1 .636-1.923l-.038-.129c-.16-.511-.061-1.137.197-1.672s.674-.982 1.158-1.133c.592-.185 1.282.082 1.895.629.614.547 1.156 1.376 1.456 2.336.073.235.14.473.183.72.513-.332 1.209-1.03 1.671-1.64-.444-.232-.799-.644-.977-1.43v-.002c-.127-.578-.174-1.254-.016-1.844.159-.59.525-1.095 1.22-1.312.427-.134.84.05 1.16.355.321.306.556.734.64 1.106.129.615-.042 1.544-.364 2.125.518.01 1.014-.048 1.416.04.206.045.39.13.537.283.146.153.255.372.32.683.131.591.065 1.228-.004 1.855-.068.628-.139 1.246-.02 1.794.016.05.034.121.061.172q.021.039.047.054c.026.015.034.016.061.007.05-.015.12-.082.197-.194s.164-.266.254-.453c.178-.373.375-.873.57-1.416.39-1.086.772-2.347.997-3.113-.105-.739-.134-1.51-.038-2.128.048-.312.128-.585.244-.797s.272-.365.471-.427c.234-.073.435-.107.604-.052.169.054.295.196.375.452.136.435.037.938-.002 1.626-.038.688-.018 1.562.349 2.736.03.095.085.251.165.368a.4.4 0 0 0 .136.136c.05.028.104.036.17.016q.06-.019.133-.113a2 2 0 0 0 .147-.258c.1-.212.201-.494.305-.81.208-.632.425-1.39.659-1.954-.046-.82.058-1.697.377-2.435.32-.742.858-1.344 1.668-1.597.39-.122.727-.109.995.034.269.143.467.413.586.794.205.656.118 1.507-.185 2.26-.3.743-.817 1.38-1.478 1.64l.027.084c.077.246.235.537.446.74s.47.32.758.23c.422-.131.829-.68 1.172-1.348.342-.666.622-1.446.812-2.047a3 3 0 0 1-.134-.35c-.6-1.924.27-3.99 2.254-4.61.32-.099.614-.14.889-.137zm-11.275 1.095v.016a.63.63 0 0 1 .459.229c.123.144.208.33.262.502.089.285.11.641.025.957s-.28.591-.618.697c-.232.072-.465.002-.653-.138a1.15 1.15 0 0 1-.399-.559c-.095-.304-.121-.655-.02-.966s.332-.58.735-.706a.7.7 0 0 1 .179-.03zm5.493 2.635a.1.1 0 0 0-.037.008c-.15.047-.275.215-.369.455s-.157.546-.197.866c-.076.615-.057 1.245-.002 1.522a.97.97 0 0 0 .365-.37c.126-.208.238-.472.328-.745s.156-.556.19-.803c.033-.247.033-.46-.007-.586a1.2 1.2 0 0 0-.086-.217c-.041-.072-.092-.123-.158-.129h-.002l-.014-.001zm-11.826 2.255a.2.2 0 0 0-.042.008c-.084.026-.138.107-.17.226a1.5 1.5 0 0 0-.036.432c.01.319.075.656.095.79v.002c.038.155.105.352.204.518.092.155.214.265.357.305.087-.174.123-.473.117-.79a5 5 0 0 0-.085-.861 1.5 1.5 0 0 0-.139-.364c-.07-.131-.165-.242-.26-.263zm18.404 1.098c-.402.544-.743 1.078-.95 1.57-.21.5-.285.956-.165 1.342.152.486.677.796 1.242.62.432-.135.822-.553 1.072-1.027s.361-1.003.254-1.346a1.45 1.45 0 0 0-.56-.777c-.248-.177-.557-.29-.893-.382m-23.428 1.574a.5.5 0 0 0-.151.02c-.163.05-.307.202-.394.383-.087.182-.119.39-.068.555.086.274.434.59.883.855.434.257.96.46 1.432.566a4 4 0 0 0-.107-.394 4.2 4.2 0 0 0-.757-1.432c-.284-.337-.586-.543-.838-.553m-.583 2.863c-.185.522-.21 1.516.013 2.232.144.459.402.86.686 1.127.284.266.592.393.837.316.353-.11.603-.47.758-.975.153-.5.208-1.14.18-1.8-.809-.066-1.734-.41-2.474-.9m-16.9 2.934a.1.1 0 0 0-.047.008c-.15.047-.272.215-.366.455s-.16.547-.2.866c-.076.615-.056 1.246-.002 1.523a.97.97 0 0 0 .365-.37c.126-.208.24-.47.33-.743s.157-.556.19-.803c.033-.248.03-.46-.009-.586a1 1 0 0 0-.086-.22c-.041-.071-.092-.123-.158-.129h-.016zm58.617 3.678a9 9 0 0 1-.92.285l-25.93 6.34 19.561-.422a7.56 7.56 0 0 0 7.289-6.203"/></svg>