<svg xmlns="http://www.w3.org/2000/svg" width="192" height="192"><path d="M29.919 19.692C22.236 19.692 16 25.923 16 33.606s6.23 13.913 13.913 13.913 13.913-6.23 13.913-13.913h.006c0-7.683-6.23-13.914-13.913-13.914m69.789.032a76 76 0 0 0-26.209 4.625C63.31 28.073 58.076 39.354 61.8 49.537c3.724 10.189 15.004 15.423 25.187 11.699a37 37 0 0 1 12.721-2.24c20.416 0 37.02 16.604 37.02 37.02s-16.603 37.02-37.02 37.02c-20.416 0-37.02-16.608-37.02-37.02 0-3.368.45-6.699 1.332-9.896 2.887-10.456-3.242-21.273-13.698-24.16s-21.273 3.248-24.16 13.698a76.4 76.4 0 0 0-2.753 20.359c0 42.07 34.228 76.292 76.292 76.292h.006c42.07 0 76.292-34.222 76.292-76.292s-34.228-76.292-76.292-76.292z"/></svg>