<svg xmlns="http://www.w3.org/2000/svg" width="192" height="192"><path d="M95.365 16.01a9.2 9.2 0 0 0-8.766 9.195 9.2 9.2 0 0 0 9.195 9.195 9.2 9.2 0 1 0-.43-18.39zm-.042 33.194a9.2 9.2 0 0 0-8.724 9.264 9.2 9.2 0 0 0 9.195 9.196v-.07a9.2 9.2 0 1 0-.47-18.39zM60.481 72.621A31.1 31.1 0 0 0 47.88 75.46a34.5 34.5 0 0 0-10.4 6.716 34.1 34.1 0 0 0-7.076 9.985 32.1 32.1 0 0 0-3.254 11.95c-.779 4.672-7.077 40.345-7.077 51.668a18.05 18.05 0 0 0 4.667 14.153 23 23 0 0 0 17.2 6.01 29.72 29.72 0 0 0 21.228-9.195 123.3 123.3 0 0 0 13.723-20.315h37.944a130 130 0 0 0 13.654 20.246 24.7 24.7 0 0 0 10.83 7.076 31.5 31.5 0 0 0 10.828 1.98 22.93 22.93 0 0 0 17.2-5.94 18.2 18.2 0 0 0 4.597-13.945c-.637-11.394-6.658-47.136-7.437-51.737a32.1 32.1 0 0 0-3.392-11.951 34.1 34.1 0 0 0-7.077-9.985 34.5 34.5 0 0 0-10.4-6.716 31.3 31.3 0 0 0-12.533-2.84 39.35 39.35 0 0 0-21.728 8.42l-2.479 1.565H84.685l-2.478-1.564a39.35 39.35 0 0 0-21.728-8.42zm70.487 11.259a23.213 23.213 0 0 1 22.434 21.229v.346c0 .425 7.077 39.64 7.077 50.892a7.08 7.08 0 0 1-1.634 5.872 13.3 13.3 0 0 1-9.195 2.617 18.6 18.6 0 0 1-12.671-5.234 129 129 0 0 1-14.79-22.725l-.845-1.551h-51.03l-.845 1.55a126 126 0 0 1-14.513 22.587 18.83 18.83 0 0 1-13.447 5.165 12.88 12.88 0 0 1-9.195-2.548 7.08 7.08 0 0 1-1.703-5.872c.637-11.323 7.076-50.467 7.076-50.892v-.138a23.284 23.284 0 0 1 22.503-21.23 30.86 30.86 0 0 1 15.995 6.579l4.68 2.908.707.415h28.306l.706-.415 4.598-2.908a30.86 30.86 0 0 1 15.787-6.647z"/></svg>