<svg xmlns="http://www.w3.org/2000/svg" xml:space="preserve" width="192" height="192"><path d="M93.722 22.067c-36.269 0-67.002 27.077-71.57 63.057l-6.055 47.689c-1.195 9.409 9.038 17.062 17.725 13.257l5.81-2.545 8.283 7.617c27.664 25.44 70.54 24.995 97.666-1.017l7.601-7.289 4.889 2.529c8.452 4.369 19.158-3.237 17.815-12.656l-6.817-47.82c-5.13-35.985-36.064-62.822-72.413-62.822zm0 15.971h2.934c28.518 0 52.577 20.871 56.602 49.103l5.81 40.76-8.698-4.496-15.842 15.191c-21.153 20.284-54.23 20.631-75.802.792l-15.954-14.673-10.111 4.428 5.332-42.006c3.57-28.126 27.377-49.1 55.729-49.1zM70.864 79.614c-1.475 0-2.746 1.185-2.849 2.656l-1.917 27.402c-.103 1.47 1 2.655 2.474 2.655h13.28c1.475 0 2.744-1.184 2.847-2.655l1.92-27.402c.103-1.471-1.003-2.656-2.477-2.656zm38.475 0c-1.475 0-2.744 1.185-2.847 2.656l-1.92 27.402c-.102 1.47 1.003 2.655 2.477 2.655h13.278c1.475 0 2.747-1.184 2.85-2.655l1.917-27.402c.103-1.471-1.002-2.656-2.477-2.656z"/></svg>