<svg xmlns="http://www.w3.org/2000/svg" width="192" height="192"><path d="M72.644 75.06c-.477 0-.955.267-1.487.8l-2.277 2.276c-1.066 1.066-1.066 1.91 0 2.975l2.277 2.277c1.065 1.066 1.91 1.066 2.975 0l2.278-2.277c1.064-1.065 1.064-1.91 0-2.975l-2.278-2.277c-.533-.533-1.01-.799-1.488-.799m73.896 11.275c-14.362 0-15.64 11.721-15.64 15.302s1.278 15.302 15.64 15.302h13.82c14.363 0 15.64-11.721 15.64-15.302s-1.277-15.302-15.64-15.302zM17.18 87.409c-1.15 0-1.502.795-.854 1.766.647.972 15.29 22.925 15.29 22.925 2.372 3.447 4.114 4.84 8.012 4.84s5.64-1.393 8.013-4.84l15.29-22.925c.647-.971.296-1.766-.854-1.766H57.6c-1.917 0-2.312.323-3.05 1.406-.74 1.083-13.543 20.382-13.543 20.382-.408.593-.84.833-1.38.833s-.972-.24-1.38-.833c0 0-12.802-19.299-13.541-20.382-.74-1.082-1.134-1.405-3.051-1.405zm53.823 0c-1.321 0-1.845.53-1.845 1.872v25.785c0 1.341.524 1.873 1.845 1.873h3.29c1.322 0 1.845-.532 1.845-1.873V89.281c0-1.34-.524-1.872-1.844-1.872zm12.193 0c-1.03 0-1.503.795-.855 1.766L97.647 112.1c2.375 3.446 4.118 4.839 8.021 4.839s5.646-1.393 8.022-4.839l15.306-22.925c.648-.971.177-1.766-.855-1.766h-4.48c-1.92 0-2.315.323-3.055 1.406s-13.556 20.382-13.556 20.382c-.409.593-.842.833-1.382.833s-.972-.24-1.381-.833c0 0-12.816-19.299-13.557-20.382s-1.135-1.406-3.054-1.406zm63.109 5.906h13.759c7.735 0 8.423 6.375 8.423 8.322s-.688 8.322-8.423 8.322h-13.759c-7.734 0-8.422-6.375-8.422-8.322s.688-8.322 8.422-8.322"/></svg>